<svg width="13" height="13" viewBox="0 0 13 13" fill="none" xmlns="http://www.w3.org/2000/svg">
<path fill-rule="evenodd" clip-rule="evenodd" d="M1.89587 5.58877C1.89587 3.09717 3.97798 1.08331 6.49649 1.08331C9.02211 1.08331 11.1042 3.09717 11.1042 5.58877C11.1042 6.84431 10.6476 8.00995 9.89602 8.99792C9.0669 10.0877 8.04496 11.0372 6.89467 11.7825C6.6314 11.9548 6.39381 11.9678 6.10487 11.7825C4.94802 11.0372 3.92609 10.0877 3.10406 8.99792C2.35195 8.00995 1.89587 6.84431 1.89587 5.58877ZM4.98025 5.72904C4.98025 6.56372 5.66135 7.22021 6.49649 7.22021C7.33217 7.22021 8.01983 6.56372 8.01983 5.72904C8.01983 4.90085 7.33217 4.21242 6.49649 4.21242C5.66135 4.21242 4.98025 4.90085 4.98025 5.72904Z" fill="#ADADAD"/>
</svg>
