<svg width="15" height="16" viewBox="0 0 15 16" fill="none" xmlns="http://www.w3.org/2000/svg">
<path d="M10.2024 4.2499L3.46635 10.8662C3.22373 11.1007 3.08743 11.4186 3.08743 11.7501C3.08743 12.0816 3.22373 12.3996 3.46635 12.634C3.70897 12.8684 4.03803 13.0001 4.38115 13.0001C4.72427 13.0001 5.05333 12.8684 5.29595 12.634L13.3257 4.76766C13.566 4.53552 13.7566 4.25992 13.8866 3.95662C14.0167 3.65331 14.0836 3.32823 14.0836 2.99993C14.0836 2.67163 14.0167 2.34655 13.8866 2.04324C13.7566 1.73994 13.566 1.46435 13.3257 1.2322C13.0855 1.00006 12.8002 0.815919 12.4863 0.690285C12.1724 0.564652 11.8359 0.499989 11.4961 0.499989C11.1564 0.499989 10.8199 0.564652 10.506 0.690285C10.192 0.815919 9.90681 1.00006 9.66654 1.23221L1.63675 9.09852C0.908895 9.80177 0.499989 10.7556 0.499989 11.7501C0.499989 12.7447 0.908895 13.6985 1.63675 14.4017C2.36461 15.1049 3.3518 15.5 4.38115 15.5C5.4105 15.5 6.39769 15.1049 7.12555 14.4017L13.7601 7.99982" stroke="#ADADAD" stroke-linecap="round" stroke-linejoin="round"/>
</svg>
