<svg width="29" height="26" viewBox="0 0 29 26" fill="none" xmlns="http://www.w3.org/2000/svg">
<circle cx="18" cy="15" r="5" fill="white"/>
<path fill-rule="evenodd" clip-rule="evenodd" d="M4.16956 11.1776C4.16956 6.1944 8.7488 2.16669 14.2879 2.16669C19.8425 2.16669 24.4218 6.1944 24.4218 11.1776C24.4218 13.6887 23.4175 16.02 21.7646 17.9959C19.941 20.1755 17.6935 22.0745 15.1636 23.5652C14.5846 23.9096 14.062 23.9356 13.4265 23.5652C10.8823 22.0745 8.63468 20.1755 6.82677 17.9959C5.17262 16.02 4.16956 13.6887 4.16956 11.1776ZM10.9531 11.4582C10.9531 13.1275 12.4511 14.4405 14.2878 14.4405C16.1258 14.4405 17.6382 13.1275 17.6382 11.4582C17.6382 9.8018 16.1258 8.42493 14.2878 8.42493C12.4511 8.42493 10.9531 9.8018 10.9531 11.4582Z" fill="#FC6969"/>
</svg>
