<svg width="18" height="18" viewBox="0 0 18 18" fill="none" xmlns="http://www.w3.org/2000/svg">
<mask id="mask0_1:2570" style="mask-type:alpha" maskUnits="userSpaceOnUse" x="1" y="1" width="16" height="16">
<path fill-rule="evenodd" clip-rule="evenodd" d="M1.5 1.49999H16.1076V16.1077H1.5V1.49999Z" fill="white"/>
</mask>
<g mask="url(#mask0_1:2570)">
<path fill-rule="evenodd" clip-rule="evenodd" d="M8.80401 2.62502C5.39676 2.62502 2.62476 5.39627 2.62476 8.80352C2.62476 12.2108 5.39676 14.9828 8.80401 14.9828C12.2105 14.9828 14.9825 12.2108 14.9825 8.80352C14.9825 5.39627 12.2105 2.62502 8.80401 2.62502ZM8.80401 16.1077C4.77651 16.1077 1.49976 12.831 1.49976 8.80349C1.49976 4.77599 4.77651 1.49999 8.80401 1.49999C12.8315 1.49999 16.1075 4.77599 16.1075 8.80349C16.1075 12.831 12.8315 16.1077 8.80401 16.1077Z" fill="#ADADAD"/>
</g>
<mask id="mask1_1:2570" style="mask-type:alpha" maskUnits="userSpaceOnUse" x="12" y="13" width="5" height="5">
<path fill-rule="evenodd" clip-rule="evenodd" d="M12.9299 13.2802H16.698V17.0412H12.9299V13.2802Z" fill="white"/>
</mask>
<g mask="url(#mask1_1:2570)">
<path fill-rule="evenodd" clip-rule="evenodd" d="M16.1356 17.0412C15.9924 17.0412 15.8484 16.9865 15.7381 16.877L13.0951 14.2415C12.8754 14.0217 12.8746 13.6655 13.0944 13.4457C13.3134 13.2245 13.6696 13.226 13.8901 13.4442L16.5331 16.0805C16.7529 16.3002 16.7536 16.6557 16.5339 16.8755C16.4244 16.9865 16.2796 17.0412 16.1356 17.0412Z" fill="#ADADAD"/>
</g>
</svg>
