<svg width="43" height="43" viewBox="0 0 43 43" fill="none" xmlns="http://www.w3.org/2000/svg">
<circle cx="21.5" cy="21.5" r="21.5" fill="#E8F3F1"/>
<path fill-rule="evenodd" clip-rule="evenodd" d="M30.8887 24.8956H26.8407C24.9437 24.8956 23.3997 23.3526 23.3987 21.4566C23.3987 19.5586 24.9427 18.0146 26.8407 18.0136H30.8887C31.3027 18.0136 31.6387 18.3496 31.6387 18.7636C31.6387 19.1776 31.3027 19.5136 30.8887 19.5136H26.8407C25.7697 19.5146 24.8987 20.3856 24.8987 21.4556C24.8987 22.5246 25.7707 23.3956 26.8407 23.3956H30.8887C31.3027 23.3956 31.6387 23.7316 31.6387 24.1456C31.6387 24.5596 31.3027 24.8956 30.8887 24.8956Z" fill="#52D1C6"/>
<path fill-rule="evenodd" clip-rule="evenodd" d="M27.2983 22.1436H26.9863C26.5723 22.1436 26.2363 21.8076 26.2363 21.3936C26.2363 20.9796 26.5723 20.6436 26.9863 20.6436H27.2983C27.7123 20.6436 28.0483 20.9796 28.0483 21.3936C28.0483 21.8076 27.7123 22.1436 27.2983 22.1436Z" fill="#52D1C6"/>
<mask id="mask0_1:1161" style="mask-type:alpha" maskUnits="userSpaceOnUse" x="11" y="12" width="21" height="20">
<path fill-rule="evenodd" clip-rule="evenodd" d="M11 12H31.6386V31.1729H11V12Z" fill="white"/>
</mask>
<g mask="url(#mask0_1:1161)">
<path fill-rule="evenodd" clip-rule="evenodd" d="M16.9975 13.5C14.5175 13.5 12.4995 15.518 12.4995 17.998V25.175C12.4995 27.655 14.5175 29.673 16.9975 29.673H25.6415C28.1215 29.673 30.1385 27.655 30.1385 25.175V17.998C30.1385 15.518 28.1215 13.5 25.6415 13.5H16.9975ZM25.6415 31.173H16.9975C13.6905 31.173 10.9995 28.482 10.9995 25.175V17.998C10.9995 14.69 13.6905 12 16.9975 12H25.6415C28.9485 12 31.6385 14.69 31.6385 17.998V25.175C31.6385 28.482 28.9485 31.173 25.6415 31.173Z" fill="#52D1C6"/>
</g>
<path fill-rule="evenodd" clip-rule="evenodd" d="M21.6846 18.0381H16.2856C15.8716 18.0381 15.5356 17.7021 15.5356 17.2881C15.5356 16.8741 15.8716 16.5381 16.2856 16.5381H21.6846C22.0986 16.5381 22.4346 16.8741 22.4346 17.2881C22.4346 17.7021 22.0986 18.0381 21.6846 18.0381Z" fill="#52D1C6"/>
</svg>
