<svg width="22" height="23" viewBox="0 0 22 23" fill="none" xmlns="http://www.w3.org/2000/svg">
<path fill-rule="evenodd" clip-rule="evenodd" d="M16.4329 0C17.908 0 19.327 0.677222 20.3709 1.89239C21.4159 3.105 22 4.74056 22 6.45278V16.5472C22 20.1122 19.503 23 16.4329 23H5.566C2.4959 23 0 20.1122 0 16.5472V6.45278C0 2.88778 2.4849 0 5.566 0H16.4329ZM18.183 8.35667L18.271 8.25444C18.5339 7.88389 18.5339 7.34722 18.2589 6.97667C18.106 6.78628 17.8959 6.67 17.677 6.64444C17.446 6.63039 17.226 6.72111 17.0599 6.9L12.1 11.5C11.462 12.1146 10.5479 12.1146 9.9 11.5L4.95 6.9C4.6079 6.60611 4.1349 6.64444 3.85 6.98944C3.553 7.33444 3.52 7.88389 3.7719 8.26722L3.916 8.43333L8.921 12.9694C9.537 13.5317 10.2839 13.8383 11.066 13.8383C11.8459 13.8383 12.606 13.5317 13.2209 12.9694L18.183 8.35667Z" fill="#52D1C6"/>
</svg>
