<svg width="43" height="43" viewBox="0 0 43 43" fill="none" xmlns="http://www.w3.org/2000/svg">
<circle cx="21.5" cy="21.5" r="21.5" fill="#E8F3F1"/>
<path fill-rule="evenodd" clip-rule="evenodd" d="M21 13.5C16.313 13.5 12.5 17.313 12.5 22C12.5 26.687 16.313 30.5 21 30.5C25.687 30.5 29.5 26.687 29.5 22C29.5 17.313 25.687 13.5 21 13.5ZM21 32C15.486 32 11 27.514 11 22C11 16.486 15.486 12 21 12C26.514 12 31 16.486 31 22C31 27.514 26.514 32 21 32Z" fill="#52D1C6"/>
<path fill-rule="evenodd" clip-rule="evenodd" d="M20.9941 23.373C20.5801 23.373 20.2441 23.037 20.2441 22.623V18.204C20.2441 17.79 20.5801 17.454 20.9941 17.454C21.4081 17.454 21.7441 17.79 21.7441 18.204V22.623C21.7441 23.037 21.4081 23.373 20.9941 23.373Z" fill="#52D1C6"/>
<path fill-rule="evenodd" clip-rule="evenodd" d="M21.0038 26.7959C20.4508 26.7959 19.9988 26.3489 19.9988 25.7959C19.9988 25.2429 20.4418 24.7959 20.9938 24.7959H21.0038C21.5568 24.7959 22.0038 25.2429 22.0038 25.7959C22.0038 26.3489 21.5568 26.7959 21.0038 26.7959Z" fill="#52D1C6"/>
</svg>
