<svg width="71" height="71" viewBox="0 0 71 71" fill="none" xmlns="http://www.w3.org/2000/svg">
<rect width="71" height="71" rx="15" fill="#52D1C6"/>
<g clip-path="url(#clip0_153:150)">
<path d="M30.5925 28.6129C30.2152 28.6129 29.9089 28.9191 29.9089 29.2964C29.9089 29.6738 30.2152 29.98 30.5925 29.98C30.9699 29.98 31.2761 29.6738 31.2761 29.2964C31.2761 28.9191 30.9699 28.6129 30.5925 28.6129Z" fill="white"/>
<path d="M36.7445 41.3954H34.6939V39.3447C34.6939 38.9672 34.3878 38.6611 34.0103 38.6611C33.6328 38.6611 33.3268 38.9672 33.3268 39.3447V41.3954H31.2761C30.8986 41.3954 30.5925 41.7015 30.5925 42.0789C30.5925 42.4563 30.8986 42.7625 31.2761 42.7625H33.3268V44.8131C33.3268 45.1906 33.6329 45.4967 34.0103 45.4967C34.3877 45.4967 34.6939 45.1906 34.6939 44.8131V42.7625H36.7445C37.122 42.7625 37.4281 42.4564 37.4281 42.0789C37.4281 41.7014 37.1221 41.3954 36.7445 41.3954Z" fill="white"/>
<path d="M55.1937 42.0106C53.6827 39.3934 50.3415 38.4977 47.7238 40.0091L44.9472 41.6122V35.6761C44.9472 34.9423 44.7045 34.214 44.2637 33.6255L40.8459 29.0686V27.1281C41.6415 26.8459 42.213 26.0862 42.213 25.195V22.0506C42.2129 20.9199 41.293 20 40.1623 20H27.8582C26.7275 20 25.8075 20.9199 25.8075 22.0506V25.195C25.8075 26.0861 26.379 26.846 27.1746 27.1282V29.0686L23.7566 33.6258C23.3159 34.2141 23.0732 34.9423 23.0732 35.6761V48.9146C23.0732 50.7992 24.6065 52.3323 26.491 52.3323H37.4765C39.0092 54.9015 42.3141 55.7613 44.9047 54.2655L53.1923 49.4805C55.7869 47.9822 56.7124 44.6421 55.1937 42.0106ZM27.1746 22.0506C27.1746 21.6737 27.4813 21.3671 27.8581 21.3671H40.1622C40.5391 21.3671 40.8458 21.6737 40.8458 22.0506V25.195C40.8458 25.572 40.5391 25.8786 40.1622 25.8786H27.8582C27.4813 25.8786 27.1747 25.5719 27.1747 25.195V22.0506H27.1746ZM24.8506 34.4456L28.405 29.7066C28.4937 29.5883 28.5417 29.4443 28.5417 29.2964V27.2458H39.4787V28.6129H33.3267C32.9492 28.6129 32.6431 28.919 32.6431 29.2965C32.6431 29.6739 32.9492 29.9801 33.3267 29.9801H39.8205L43.1696 34.4454C43.3885 34.7377 43.5245 35.0873 43.5655 35.4485H24.4549C24.4959 35.0873 24.6319 34.7376 24.8506 34.4456ZM26.4911 50.9652C25.3603 50.9652 24.4404 50.0453 24.4404 48.9146V48.2242H36.8596C36.6428 49.1105 36.6443 50.0571 36.8925 50.9653H26.4911V50.9652ZM37.3958 46.8639H24.4404V36.8155H43.58V42.4014L39.4361 44.7941C38.5722 45.2932 37.8738 46.0036 37.3958 46.8639ZM44.2212 53.0815C42.2595 54.2143 39.7528 53.5444 38.6193 51.5813C37.4803 49.5993 38.1705 47.1039 40.1199 45.9779L43.8302 43.8357L47.9316 50.9392L44.2212 53.0815ZM52.5087 48.2966L49.1156 50.2557L45.0141 43.152L48.4074 41.1931C50.3704 40.0599 52.8762 40.7309 54.0098 42.6941C55.1483 44.6671 54.4559 47.1722 52.5087 48.2966Z" fill="white"/>
</g>
<defs>
<clipPath id="clip0_153:150">
<rect width="35" height="35" fill="white" transform="translate(22 20)"/>
</clipPath>
</defs>
</svg>
