<svg width="21" height="25" viewBox="0 0 21 25" fill="none" xmlns="http://www.w3.org/2000/svg">
<path d="M7.57232 22.3848V18.8542C7.5723 17.9595 8.22005 17.2327 9.02237 17.227H11.9684C12.7743 17.227 13.4276 17.9555 13.4276 18.8542V18.8542V22.3746C13.4276 23.1506 13.989 23.7812 14.6849 23.7868H16.6948C17.6335 23.7895 18.5346 23.3756 19.1992 22.6365C19.8638 21.8973 20.2373 20.8936 20.2373 19.8469V9.81786C20.2373 8.97234 19.9012 8.17032 19.3196 7.62785L12.4915 1.53882C11.2979 0.473776 9.59322 0.50818 8.43501 1.62069L1.75376 7.62785C1.14464 8.15433 0.78058 8.95873 0.762589 9.81786V19.8366C0.762589 22.0183 2.34863 23.7868 4.30512 23.7868H6.26911C6.60416 23.7896 6.92633 23.643 7.16411 23.3798C7.40189 23.1166 7.53562 22.7584 7.53561 22.3848H7.57232Z" stroke="#ADADAD" stroke-width="1.5"/>
</svg>
