<svg width="71" height="71" viewBox="0 0 71 71" fill="none" xmlns="http://www.w3.org/2000/svg">
<rect width="71" height="71" rx="15" fill="#52D1C6"/>
<g clip-path="url(#clip0_153:127)">
<path d="M39.6484 20.4469C39.9721 20.4469 40.2344 20.1846 40.2344 19.861V18.0916C40.2344 17.768 39.9721 17.5056 39.6484 17.5056C39.3248 17.5056 39.0625 17.768 39.0625 18.0916V19.861C39.0625 20.1846 39.3248 20.4469 39.6484 20.4469ZM36.7653 20.5557C36.9259 20.8405 37.2859 20.9347 37.5635 20.7781C37.8454 20.6191 37.945 20.2618 37.786 19.9799L37.043 18.6627C36.8841 18.3809 36.5266 18.2814 36.2448 18.4403C35.9629 18.5993 35.8633 18.9566 36.0223 19.2385L36.7653 20.5557ZM41.7334 20.7781C42.0104 20.9343 42.371 20.8405 42.5316 20.5557L43.2747 19.2385C43.4337 18.9566 43.3341 18.5993 43.0522 18.4403C42.7705 18.2813 42.413 18.3809 42.254 18.6627L41.5109 19.9799C41.352 20.2618 41.4515 20.6191 41.7334 20.7781ZM52.997 36.873L48.247 35.2902C47.9777 35.2005 47.7611 34.9979 47.6528 34.7343L45.006 28.2946C44.553 27.1916 43.4894 26.4789 42.296 26.4789H42.2656V25.4241C42.2656 23.9809 41.0916 22.8069 39.6484 22.8069C38.2053 22.8069 37.0312 23.9809 37.0312 25.4241V26.4789H33.0499C33.0489 26.4789 33.0479 26.4787 33.0469 26.4787C33.0459 26.4787 33.0448 26.4789 33.0438 26.4789H17.9297C16.3142 26.4789 15 27.7931 15 29.4086V33.2756C15 33.5992 15.2623 33.8615 15.5859 33.8615C15.9096 33.8615 16.1719 33.5992 16.1719 33.2756V29.4086C16.1719 28.4393 16.9605 27.6508 17.9297 27.6508H32.4609V40.3069H16.1719V36.01C16.1719 35.6864 15.9096 35.4241 15.5859 35.4241C15.2623 35.4241 15 35.6864 15 36.01V45.2289C15 46.8444 16.3142 48.1586 17.9297 48.1586H19.4306C19.7215 50.597 21.8009 52.4944 24.3164 52.4944C26.832 52.4944 28.9113 50.597 29.2022 48.1586H39.8798C40.1707 50.597 42.2501 52.4944 44.7656 52.4944C47.2812 52.4944 49.3605 50.597 49.6514 48.1586H52.0703C53.6858 48.1586 55 46.8444 55 45.2289V39.6523C55 38.389 54.195 37.272 52.997 36.873ZM24.3164 51.3225C22.2486 51.3225 20.5664 49.6402 20.5664 47.5725C20.5664 45.5048 22.2486 43.8225 24.3164 43.8225C26.3842 43.8225 28.0664 45.5048 28.0664 47.5725C28.0664 49.6402 26.3842 51.3225 24.3164 51.3225ZM32.4609 46.9867H29.2022C28.9115 44.5481 26.832 42.6506 24.3164 42.6506C21.8009 42.6506 19.7213 44.5481 19.4306 46.9867H17.9297C16.9605 46.9867 16.1719 46.1982 16.1719 45.2289V41.4787H32.4609V46.9867ZM38.2031 25.4241C38.2031 24.6271 38.8515 23.9787 39.6484 23.9787C40.4454 23.9787 41.0938 24.6271 41.0938 25.4241V26.4789H38.2031V25.4241ZM44.7656 51.3225C42.6978 51.3225 41.0156 49.6402 41.0156 47.5725C41.0156 45.5048 42.6978 43.8225 44.7656 43.8225C46.8334 43.8225 48.5156 45.5048 48.5156 47.5725C48.5156 49.6402 46.8334 51.3225 44.7656 51.3225ZM53.8281 40.3069H44.8909C44.5672 40.3069 44.3049 40.5692 44.3049 40.8928C44.3049 41.2164 44.5672 41.4787 44.8909 41.4787H53.8281V45.2289C53.8281 46.1982 53.0395 46.9867 52.0703 46.9867H49.6514C49.3607 44.5481 47.2812 42.6506 44.7656 42.6506C42.2501 42.6506 40.1705 44.5481 39.8798 46.9867H33.6328V41.4787H42.1565C42.4802 41.4787 42.7424 41.2164 42.7424 40.8928C42.7424 40.5692 42.4802 40.3069 42.1565 40.3069H33.6328V27.6508H42.2961C43.0121 27.6508 43.6504 28.0782 43.9221 28.7399L46.5689 35.1798C46.807 35.7589 47.2835 36.2043 47.8765 36.4019L52.6266 37.9848C53.3452 38.2241 53.8281 38.8943 53.8281 39.6523V40.3069ZM42.8296 29.4344C42.68 29.0627 42.3244 28.8225 41.9237 28.8225H35.7812C35.2427 28.8225 34.8047 29.2605 34.8047 29.7991V35.2287C34.8047 35.7673 35.2427 36.2053 35.7812 36.2053H44.1092C44.7834 36.2103 45.2724 35.4897 45.0152 34.864L42.8296 29.4344ZM35.9766 35.0334V29.9944H41.7917L43.8201 35.0334H35.9766ZM44.7656 45.8147C43.7964 45.8147 43.0078 46.6032 43.0078 47.5725C43.0078 48.5418 43.7964 49.3303 44.7656 49.3303C45.7348 49.3303 46.5234 48.5418 46.5234 47.5725C46.5234 46.6032 45.7348 45.8147 44.7656 45.8147ZM44.7656 48.1584C44.4425 48.1584 44.1797 47.8956 44.1797 47.5725C44.1797 47.2494 44.4425 46.9866 44.7656 46.9866C45.0888 46.9866 45.3516 47.2494 45.3516 47.5725C45.3516 47.8956 45.0888 48.1584 44.7656 48.1584ZM25.0195 28.8225H23.6133C23.0317 28.8225 22.5586 29.2956 22.5586 29.8772V32.2209H20.2148C19.6333 32.2209 19.1602 32.6941 19.1602 33.2756V34.6819C19.1602 35.2634 19.6333 35.7366 20.2148 35.7366H22.5586V38.0803C22.5586 38.6619 23.0317 39.135 23.6133 39.135H25.0195C25.6011 39.135 26.0742 38.6619 26.0742 38.0803V35.7366H28.418C28.9995 35.7366 29.4727 35.2634 29.4727 34.6819V33.2756C29.4727 32.6941 28.9995 32.2209 28.418 32.2209H26.0742V29.8772C26.0742 29.2956 25.6011 28.8225 25.0195 28.8225ZM28.3008 33.3928V34.5647H25.7227C25.2703 34.5647 24.9023 34.9326 24.9023 35.385V37.9631H23.7305V35.385C23.7305 34.9326 23.3625 34.5647 22.9102 34.5647H20.332V33.3928H22.9102C23.3625 33.3928 23.7305 33.0248 23.7305 32.5725V29.9944H24.9023V32.5725C24.9023 33.0248 25.2703 33.3928 25.7227 33.3928H28.3008ZM24.3164 45.8147C23.3472 45.8147 22.5586 46.6032 22.5586 47.5725C22.5586 48.5418 23.3472 49.3303 24.3164 49.3303C25.2856 49.3303 26.0742 48.5418 26.0742 47.5725C26.0742 46.6032 25.2856 45.8147 24.3164 45.8147ZM24.3164 48.1584C23.9933 48.1584 23.7305 47.8956 23.7305 47.5725C23.7305 47.2494 23.9933 46.9866 24.3164 46.9866C24.6395 46.9866 24.9023 47.2494 24.9023 47.5725C24.9023 47.8956 24.6395 48.1584 24.3164 48.1584Z" fill="white"/>
</g>
<defs>
<clipPath id="clip0_153:127">
<rect width="40" height="40" fill="white" transform="translate(15 15)"/>
</clipPath>
</defs>
</svg>
