<svg width="138" height="87" viewBox="0 0 138 87" fill="none" xmlns="http://www.w3.org/2000/svg">
<rect width="138" height="87" rx="8" fill="#C4C4C4"/>
<path fill-rule="evenodd" clip-rule="evenodd" d="M126.777 6.62967H130.789C132.551 6.62967 133.974 7.31404 133.994 9.05376V18.7629C133.994 18.8717 133.968 18.9804 133.916 19.0763C133.831 19.2298 133.688 19.345 133.513 19.3961C133.344 19.4473 133.155 19.4217 132.999 19.3322L128.786 17.2599L124.567 19.3322C124.47 19.3827 124.359 19.4153 124.248 19.4153C123.884 19.4153 123.591 19.1211 123.591 18.7629V9.05376C123.591 7.31404 125.022 6.62967 126.777 6.62967ZM126.335 11.5034H131.231C131.51 11.5034 131.738 11.2789 131.738 10.9982C131.738 10.7167 131.51 10.4929 131.231 10.4929H126.335C126.055 10.4929 125.828 10.7167 125.828 10.9982C125.828 11.2789 126.055 11.5034 126.335 11.5034Z" fill="white"/>
</svg>
