<svg width="50" height="50" viewBox="0 0 50 50" fill="none" xmlns="http://www.w3.org/2000/svg">
<rect width="50" height="50" rx="8" fill="#E8F3F1"/>
<path d="M15.7501 16.2499L17.8301 16.6099L18.7931 28.0829C18.8701 29.0199 19.6531 29.7389 20.5931 29.7359H31.5021C32.3991 29.7379 33.1601 29.0779 33.2871 28.1899L34.2361 21.6319C34.3421 20.8989 33.8331 20.2189 33.1011 20.1129C33.0371 20.1039 18.1641 20.0989 18.1641 20.0989" stroke="#52D1C6" stroke-width="1.5" stroke-linecap="round" stroke-linejoin="round"/>
<path d="M27.1251 23.7948H29.8981" stroke="#52D1C6" stroke-width="1.5" stroke-linecap="round" stroke-linejoin="round"/>
<path fill-rule="evenodd" clip-rule="evenodd" d="M20.1545 33.2025C20.4555 33.2025 20.6985 33.4465 20.6985 33.7465C20.6985 34.0475 20.4555 34.2915 20.1545 34.2915C19.8535 34.2915 19.6105 34.0475 19.6105 33.7465C19.6105 33.4465 19.8535 33.2025 20.1545 33.2025Z" fill="#52D1C6" stroke="#52D1C6" stroke-width="1.5" stroke-linecap="round" stroke-linejoin="round"/>
<path fill-rule="evenodd" clip-rule="evenodd" d="M31.4347 33.2025C31.7357 33.2025 31.9797 33.4465 31.9797 33.7465C31.9797 34.0475 31.7357 34.2915 31.4347 34.2915C31.1337 34.2915 30.8907 34.0475 30.8907 33.7465C30.8907 33.4465 31.1337 33.2025 31.4347 33.2025Z" fill="#52D1C6" stroke="#52D1C6" stroke-width="1.5" stroke-linecap="round" stroke-linejoin="round"/>
</svg>
