<svg width="18" height="18" viewBox="0 0 18 18" fill="none" xmlns="http://www.w3.org/2000/svg">
<path d="M14.4937 7.10115C14.4937 7.10115 14.0864 12.1524 13.8502 14.2802C13.7377 15.2964 13.1099 15.8919 12.0817 15.9107C10.1249 15.9459 8.1659 15.9482 6.2099 15.9069C5.22065 15.8867 4.6034 15.2837 4.49315 14.2854C4.2554 12.1389 3.8504 7.10115 3.8504 7.10115" stroke="#ADADAD" stroke-width="1.5" stroke-linecap="round" stroke-linejoin="round"/>
<path d="M15.5311 4.67978H2.81262" stroke="#ADADAD" stroke-width="1.5" stroke-linecap="round" stroke-linejoin="round"/>
<path d="M13.0804 4.67978C12.4916 4.67978 11.9846 4.26353 11.8691 3.68678L11.6869 2.77478C11.5744 2.35403 11.1934 2.06303 10.7591 2.06303H7.58437C7.15012 2.06303 6.76912 2.35403 6.65662 2.77478L6.47437 3.68678C6.35887 4.26353 5.85187 4.67978 5.26312 4.67978" stroke="#ADADAD" stroke-width="1.5" stroke-linecap="round" stroke-linejoin="round"/>
</svg>
