<svg width="13" height="13" viewBox="0 0 13 13" fill="none" xmlns="http://www.w3.org/2000/svg">
<path fill-rule="evenodd" clip-rule="evenodd" d="M1.89584 5.58877C1.89584 3.09717 3.97795 1.08331 6.49646 1.08331C9.02208 1.08331 11.1042 3.09717 11.1042 5.58877C11.1042 6.84431 10.6476 8.00995 9.89599 8.99792C9.06686 10.0877 8.04493 11.0372 6.89464 11.7825C6.63137 11.9548 6.39378 11.9678 6.10484 11.7825C4.94799 11.0372 3.92606 10.0877 3.10403 8.99792C2.35192 8.00995 1.89584 6.84431 1.89584 5.58877ZM4.98022 5.72904C4.98022 6.56372 5.66132 7.22021 6.49646 7.22021C7.33214 7.22021 8.0198 6.56372 8.0198 5.72904C8.0198 4.90085 7.33214 4.21242 6.49646 4.21242C5.66132 4.21242 4.98022 4.90085 4.98022 5.72904Z" fill="#ADADAD"/>
</svg>
