<svg width="43" height="43" viewBox="0 0 43 43" fill="none" xmlns="http://www.w3.org/2000/svg">
<circle cx="21.5" cy="21.5" r="21.5" fill="#E8F3F1"/>
<mask id="mask0_1:1145" style="mask-type:alpha" maskUnits="userSpaceOnUse" x="11" y="13" width="21" height="20">
<path fill-rule="evenodd" clip-rule="evenodd" d="M11 12.9999H31.4725V32.5009H11V12.9999Z" fill="white"/>
</mask>
<g mask="url(#mask0_1:1145)">
<path fill-rule="evenodd" clip-rule="evenodd" d="M12.8237 22.123C14.2257 26.485 19.7647 30.012 21.2367 30.885C22.7137 30.003 28.2927 26.437 29.6497 22.127C30.5407 19.341 29.7137 15.812 26.4277 14.753C24.8357 14.242 22.9787 14.553 21.6967 15.545C21.4287 15.751 21.0567 15.755 20.7867 15.551C19.4287 14.53 17.6547 14.231 16.0377 14.753C12.7567 15.811 11.9327 19.34 12.8237 22.123ZM21.2377 32.501C21.1137 32.501 20.9907 32.471 20.8787 32.41C20.5657 32.239 13.1927 28.175 11.3957 22.581C11.3947 22.581 11.3947 22.58 11.3947 22.58C10.2667 19.058 11.5227 14.632 15.5777 13.325C17.4817 12.709 19.5567 12.98 21.2347 14.039C22.8607 13.011 25.0207 12.727 26.8867 13.325C30.9457 14.634 32.2057 19.059 31.0787 22.58C29.3397 28.11 21.9127 32.235 21.5977 32.408C21.4857 32.47 21.3617 32.501 21.2377 32.501Z" fill="#52D1C6"/>
</g>
<path fill-rule="evenodd" clip-rule="evenodd" d="M27.1537 20.6249C26.7667 20.6249 26.4387 20.3279 26.4067 19.9359C26.3407 19.1139 25.7907 18.4199 25.0077 18.1669C24.6127 18.0389 24.3967 17.6159 24.5237 17.2229C24.6527 16.8289 25.0717 16.6149 25.4677 16.7389C26.8307 17.1799 27.7857 18.3869 27.9027 19.8139C27.9357 20.2269 27.6287 20.5889 27.2157 20.6219C27.1947 20.6239 27.1747 20.6249 27.1537 20.6249Z" fill="#52D1C6"/>
</svg>
