<svg width="50" height="50" viewBox="0 0 50 50" fill="none" xmlns="http://www.w3.org/2000/svg">
<rect width="50" height="50" rx="8" fill="#E8F3F1"/>
<path fill-rule="evenodd" clip-rule="evenodd" d="M32.0714 32.0699C29.0152 35.1263 24.4898 35.7867 20.7864 34.074C20.2397 33.8539 19.7915 33.676 19.3654 33.676C18.1785 33.683 16.7012 34.8339 15.9334 34.067C15.1656 33.2991 16.3173 31.8206 16.3173 30.6266C16.3173 30.2004 16.1464 29.7602 15.9263 29.2124C14.2128 25.5096 14.8741 20.9827 17.9303 17.9272C21.8316 14.0244 28.17 14.0244 32.0714 17.9262C35.9797 21.835 35.9727 28.1681 32.0714 32.0699Z" stroke="#52D1C6" stroke-width="1.5" stroke-linecap="round" stroke-linejoin="round"/>
<path d="M28.9394 25.413H28.9484" stroke="#52D1C6" stroke-width="2" stroke-linecap="round" stroke-linejoin="round"/>
<path d="M24.9304 25.413H24.9394" stroke="#52D1C6" stroke-width="2" stroke-linecap="round" stroke-linejoin="round"/>
<path d="M20.9214 25.413H20.9304" stroke="#52D1C6" stroke-width="2" stroke-linecap="round" stroke-linejoin="round"/>
</svg>
