<svg width="20" height="23" viewBox="0 0 20 23" fill="none" xmlns="http://www.w3.org/2000/svg">
<path d="M6.80255 21.5994V18.0725C6.80254 17.1788 7.4496 16.4527 8.25108 16.4471H11.194C11.999 16.4471 12.6517 17.1748 12.6517 18.0725V21.5892C12.6516 22.3644 13.2125 22.9944 13.9076 23H15.9154C16.8531 23.0027 17.7532 22.5892 18.4172 21.8508C19.0811 21.1124 19.4542 20.1098 19.4542 19.0642V9.04573C19.4542 8.2011 19.1184 7.39992 18.5374 6.85803L11.7165 0.775409C10.5242 -0.288509 8.82133 -0.254141 7.66433 0.857192L0.990129 6.85803C0.381651 7.38395 0.0179719 8.1875 0 9.04573V19.0539C0 21.2333 1.58437 23 3.53879 23H5.50072C5.83541 23.0027 6.15724 22.8563 6.39477 22.5934C6.63231 22.3305 6.76589 21.9727 6.76588 21.5994H6.80255Z" fill="#52D1C6"/>
</svg>
