<svg width="36" height="36" viewBox="0 0 36 36" fill="none" xmlns="http://www.w3.org/2000/svg">
<circle cx="18" cy="18" r="18" fill="#E8F3F1"/>
<path d="M17.5769 10.3242H14.4611C11.8986 10.3242 10.2919 12.1383 10.2919 14.7067V21.635C10.2919 24.2033 11.8911 26.0175 14.4611 26.0175H21.8144C24.3853 26.0175 25.9844 24.2033 25.9844 21.635V18.2783" stroke="#52D1C6" stroke-width="1.5" stroke-linecap="round" stroke-linejoin="round"/>
<path fill-rule="evenodd" clip-rule="evenodd" d="M15.3565 17.1007L21.584 10.8732C22.3598 10.0982 23.6173 10.0982 24.3932 10.8732L25.4073 11.8874C26.1832 12.6632 26.1832 13.9216 25.4073 14.6966L19.1498 20.9541C18.8107 21.2932 18.3507 21.4841 17.8707 21.4841H14.749L14.8273 18.3341C14.839 17.8707 15.0282 17.4291 15.3565 17.1007Z" stroke="#52D1C6" stroke-width="1.5" stroke-linecap="round" stroke-linejoin="round"/>
<path d="M20.6377 11.8354L24.4427 15.6404" stroke="#52D1C6" stroke-width="1.5" stroke-linecap="round" stroke-linejoin="round"/>
</svg>
