<svg width="20" height="20" viewBox="0 0 20 20" fill="none" xmlns="http://www.w3.org/2000/svg">
<path d="M17.3415 12.3771L13.6823 10.8089C13.4913 10.7266 13.2827 10.6935 13.0756 10.7125C12.8684 10.7316 12.6694 10.8021 12.4965 10.9178L10.54 12.222C9.34426 11.6404 8.37647 10.6769 7.78961 9.48372L7.78976 9.48357L9.08935 7.49779C9.20248 7.32539 9.27111 7.12765 9.28911 6.92224C9.30711 6.71683 9.27392 6.51016 9.1925 6.32072L7.62283 2.65839C7.51599 2.40979 7.33149 2.20249 7.09696 2.06752C6.86243 1.93256 6.5905 1.87719 6.32187 1.90971C5.2663 2.04543 4.29623 2.5608 3.5929 3.35953C2.88957 4.15827 2.50108 5.18574 2.5 6.25C2.5 12.4533 7.54669 17.5 13.75 17.5C14.8143 17.4989 15.8418 17.1104 16.6405 16.4071C17.4392 15.7037 17.9546 14.7336 18.0903 13.6781C18.1227 13.4094 18.0673 13.1375 17.9323 12.903C17.7974 12.6685 17.5901 12.484 17.3415 12.3771Z" fill="#555555"/>
</svg>
