<svg width="71" height="71" viewBox="0 0 71 71" fill="none" xmlns="http://www.w3.org/2000/svg">
<rect width="71" height="71" rx="15" fill="#52D1C6"/>
<path d="M34.9864 37.2038C30.1113 37.0449 28.9421 32.8708 28.6918 31.5232C28.2225 31.4145 27.8043 31.1489 27.5064 30.7703C27.1663 30.3016 27.0086 29.7252 27.0626 29.1486C27.024 28.838 27.051 28.5227 27.1419 28.2232C27.2328 27.9236 27.3855 27.6465 27.5902 27.4097C27.7058 27.2913 27.8386 27.191 27.9843 27.1124C27.0782 25.6496 26.6319 23.9485 26.7032 22.2292C27.2675 18.1967 30.5172 17.8043 31.5351 17.7816C32.0035 17.2368 32.5891 16.8049 33.248 16.5184C34.4824 16.0205 35.8466 15.9445 37.1286 16.3022C39.6486 16.96 41.3291 18.2216 42.1264 20.0524C43.2616 22.6546 42.2659 25.6497 41.694 26.9946C41.9121 27.0655 42.1131 27.1809 42.2843 27.3335C42.5172 27.57 42.6927 27.8567 42.7973 28.1717C42.9018 28.4867 42.9327 28.8215 42.8875 29.1503C42.9421 29.7267 42.7845 30.3033 42.4443 30.7719C42.146 31.1504 41.7277 31.416 41.2583 31.5249C41.008 32.8708 39.8416 37.0449 34.9864 37.2038ZM28.8875 27.9767C28.6958 27.9678 28.5083 28.0346 28.3653 28.1627C28.2664 28.3013 28.1959 28.4581 28.158 28.6241C28.12 28.7901 28.1154 28.9619 28.1443 29.1297C28.1465 29.1658 28.1453 29.202 28.1405 29.2378C28.1111 29.5481 28.1912 29.8588 28.367 30.1162C28.4766 30.2386 28.6095 30.338 28.7581 30.4083C28.9066 30.4787 29.0677 30.5187 29.2318 30.5259C29.3554 30.5405 29.4702 30.5974 29.5568 30.6868C29.6433 30.7762 29.6964 30.8927 29.707 31.0167C29.7248 31.2178 30.2043 35.9665 34.9875 36.1232C39.7443 35.9665 40.2259 31.2178 40.2437 31.0157C40.2546 30.8919 40.3077 30.7756 40.3943 30.6864C40.4808 30.5972 40.5954 30.5405 40.7189 30.5259C40.8831 30.5187 41.0441 30.4788 41.1927 30.4084C41.3412 30.338 41.4742 30.2387 41.5837 30.1162C41.7602 29.8576 41.8404 29.5452 41.8102 29.2335C41.8057 29.1987 41.8044 29.1636 41.8064 29.1286C41.8356 28.9553 41.8291 28.7779 41.7872 28.6072C41.7452 28.4365 41.6688 28.2762 41.5626 28.1362C41.3938 28.0119 41.1837 27.9569 40.9756 27.9827C40.8756 28.0004 40.7726 27.9896 40.6784 27.9515C40.5842 27.9134 40.5027 27.8495 40.4432 27.7672C40.3836 27.6849 40.3485 27.5874 40.3418 27.4861C40.3351 27.3847 40.3572 27.2835 40.4053 27.194C40.4253 27.1562 42.4053 23.3984 41.1329 20.4778C40.474 18.9686 39.0356 17.9151 36.8567 17.3465C35.8094 17.0501 34.6937 17.1071 33.6821 17.5086C33.1066 17.7566 32.605 18.1491 32.2259 18.6481C32.1713 18.7223 32.0985 18.7812 32.0145 18.8191C31.9305 18.857 31.8382 18.8726 31.7464 18.8643C31.6064 18.853 28.2967 18.6389 27.7778 22.3389C27.7778 22.3389 27.628 25.2822 29.3329 27.0659C29.4072 27.1436 29.4567 27.2417 29.475 27.3476C29.4932 27.4535 29.4796 27.5624 29.4356 27.6605C29.3951 27.7611 29.3237 27.8463 29.2317 27.9037C29.1397 27.9611 29.0319 27.9878 28.9237 27.98L28.8875 27.9767Z" fill="white"/>
<path d="M40.8817 27.9897C40.7422 27.9899 40.608 27.936 40.5073 27.8395C40.4065 27.743 40.347 27.6113 40.3411 27.4719C40.3347 27.3319 40.1671 24.0665 37.7293 23.7524C36.6142 23.894 35.482 23.8058 34.4024 23.493C33.3228 23.1803 32.3187 22.6497 31.452 21.9341C30.7628 22.4524 29.1747 24.0281 29.4801 27.3886C29.4841 27.5262 29.4355 27.6601 29.3442 27.7631C29.2529 27.8661 29.1258 27.9303 28.9888 27.9428C28.8517 27.9553 28.7151 27.915 28.6067 27.8302C28.4983 27.7454 28.4263 27.6225 28.4055 27.4865C27.9574 22.5562 31.1233 20.8449 31.2579 20.7746C31.3581 20.7223 31.4722 20.7027 31.584 20.7186C31.6959 20.7345 31.8 20.7851 31.8817 20.8632C32.6521 21.5611 33.5642 22.0843 34.5555 22.3971C35.5468 22.7099 36.594 22.8049 37.6255 22.6757C37.675 22.6677 37.7253 22.6659 37.7752 22.6703C40.5233 22.9562 41.3628 25.9086 41.4222 27.427C41.4278 27.5701 41.3764 27.7094 41.2793 27.8146C41.1822 27.9198 41.0474 27.9822 40.9044 27.9881L40.8817 27.9897Z" fill="white"/>
<path d="M50.1833 53.9189H19.8168C19.6734 53.9189 19.5359 53.862 19.4346 53.7606C19.3332 53.6592 19.2762 53.5218 19.2762 53.3784V47.3524C19.2801 45.4479 20.0391 43.6226 21.3868 42.2768C22.7345 40.9311 24.5609 40.1747 26.4654 40.1735H27.5033C27.6466 40.1735 27.7841 40.2305 27.8855 40.3318C27.9869 40.4332 28.0438 40.5707 28.0438 40.7141C28.0438 40.8574 27.9869 40.9949 27.8855 41.0963C27.7841 41.1977 27.6466 41.2546 27.5033 41.2546H26.4654C24.8475 41.2555 23.2959 41.8979 22.1509 43.0409C21.0059 44.184 20.3609 45.7345 20.3573 47.3524V52.8378H49.6427V47.3524C49.6409 45.7358 48.9978 44.1858 47.8547 43.0427C46.7115 41.8995 45.1616 41.2565 43.5449 41.2546H42.4325C42.2891 41.2546 42.1516 41.1977 42.0502 41.0963C41.9489 40.9949 41.8919 40.8574 41.8919 40.7141C41.8919 40.5707 41.9489 40.4332 42.0502 40.3318C42.1516 40.2305 42.2891 40.1735 42.4325 40.1735H43.5449C45.448 40.1762 47.2724 40.9335 48.6182 42.2792C49.9639 43.6249 50.7211 45.4493 50.7238 47.3524V53.3784C50.7238 53.5218 50.6669 53.6592 50.5655 53.7606C50.4641 53.862 50.3266 53.9189 50.1833 53.9189Z" fill="white"/>
<path d="M36.8065 53.9189C36.7287 53.9189 36.6518 53.9022 36.5811 53.8697C36.5104 53.8373 36.4475 53.79 36.3967 53.731C36.346 53.672 36.3085 53.6028 36.287 53.5281C36.2655 53.4533 36.2603 53.3748 36.2719 53.2978L38.4595 38.8205C38.4711 38.7439 38.499 38.6707 38.5413 38.6059C38.5837 38.541 38.6395 38.486 38.7049 38.4446C38.7704 38.4032 38.844 38.3763 38.9207 38.3658C38.9975 38.3553 39.0756 38.3615 39.1497 38.3838L42.9249 39.5216C43.0001 39.5443 43.0694 39.5831 43.1281 39.6353C43.1867 39.6874 43.2333 39.7518 43.2646 39.8238C43.2959 39.8958 43.3111 39.9738 43.3092 40.0523C43.3073 40.1308 43.2883 40.208 43.2535 40.2784L41.753 43.2892L42.6233 44.2659C42.7004 44.3531 42.7473 44.4629 42.757 44.5789C42.7668 44.6949 42.7388 44.8109 42.6773 44.9097L37.266 53.6627C37.2175 53.741 37.1499 53.8056 37.0695 53.8505C36.9891 53.8953 36.8986 53.9189 36.8065 53.9189ZM39.4357 39.5989L37.7357 50.8492L41.5481 44.687L40.7033 43.7384C40.6314 43.6578 40.5853 43.5575 40.5709 43.4505C40.5566 43.3434 40.5746 43.2345 40.6227 43.1378L42 40.3735L39.4357 39.5989Z" fill="white"/>
<path d="M33.1314 53.9189C33.0392 53.919 32.9486 53.8954 32.8681 53.8506C32.7875 53.8058 32.7198 53.7411 32.6714 53.6627L27.2584 44.9113C27.1969 44.8125 27.1689 44.6965 27.1787 44.5805C27.1884 44.4645 27.2353 44.3547 27.3124 44.2676L28.1827 43.2908L26.6822 40.28C26.6474 40.2096 26.6284 40.1324 26.6265 40.0539C26.6246 39.9754 26.6398 39.8975 26.6711 39.8254C26.7024 39.7534 26.749 39.6891 26.8076 39.6369C26.8663 39.5847 26.9356 39.5459 27.0108 39.5232L30.786 38.3854C30.8601 38.3632 30.9381 38.3571 31.0148 38.3676C31.0915 38.3782 31.165 38.4051 31.2304 38.4465C31.2958 38.4879 31.3516 38.5428 31.3939 38.6077C31.4362 38.6725 31.4641 38.7456 31.4757 38.8222L33.6643 53.2994C33.6756 53.3761 33.6703 53.4543 33.6488 53.5288C33.6272 53.6032 33.5899 53.6722 33.5393 53.7309C33.4888 53.7897 33.4262 53.8369 33.3558 53.8693C33.2854 53.9017 33.2089 53.9187 33.1314 53.9189ZM28.3897 44.6854L32.2022 50.8476L30.5022 39.5989L27.9378 40.3719L29.3146 43.1362C29.3628 43.2328 29.3809 43.3417 29.3666 43.4487C29.3524 43.5558 29.3064 43.6561 29.2346 43.7367L28.3897 44.6854Z" fill="white"/>
<path d="M35.0092 43.8405C33.8405 43.8397 32.6728 43.7689 31.5125 43.6286C31.4405 43.622 31.3706 43.6011 31.3069 43.567C31.2432 43.5329 31.1869 43.4864 31.1415 43.4303C31.0961 43.3741 31.0623 43.3094 31.0423 43.2399C31.0224 43.1705 31.0165 43.0977 31.0251 43.026C31.0337 42.9543 31.0566 42.885 31.0924 42.8222C31.1283 42.7595 31.1763 42.7046 31.2338 42.6607C31.2912 42.6169 31.3568 42.585 31.4268 42.5669C31.4968 42.5489 31.5696 42.5451 31.6411 42.5557C33.8503 42.8273 36.0844 42.8273 38.2936 42.5557C38.4344 42.5404 38.5757 42.5811 38.6869 42.669C38.798 42.7569 38.8702 42.8849 38.888 43.0255C38.9057 43.1661 38.8675 43.308 38.7816 43.4207C38.6957 43.5334 38.569 43.6079 38.4287 43.6281C37.2944 43.7704 36.1524 43.8414 35.0092 43.8405Z" fill="white"/>
<path d="M38.9951 39.4416C38.911 39.4413 38.828 39.4213 38.753 39.3833C38.6779 39.3453 38.6127 39.2903 38.5627 39.2227C37.7594 38.1367 37.614 35.9843 37.6005 35.7427C37.5922 35.5996 37.6411 35.4591 37.7364 35.3521C37.8317 35.245 37.9656 35.1802 38.1086 35.1719C38.2513 35.1652 38.3909 35.2146 38.4976 35.3096C38.6043 35.4045 38.6696 35.5375 38.6794 35.68C38.7124 36.2486 38.9124 37.8784 39.4313 38.58C39.4906 38.6603 39.5265 38.7555 39.535 38.8549C39.5436 38.9544 39.5244 39.0543 39.4796 39.1435C39.4348 39.2328 39.3662 39.3078 39.2813 39.3604C39.1965 39.4131 39.0987 39.4411 38.9989 39.4416H38.9951Z" fill="white"/>
<path d="M30.5381 39.2717C30.4383 39.2713 30.3405 39.2432 30.2557 39.1906C30.1708 39.138 30.1022 39.0629 30.0574 38.9736C30.0126 38.8844 29.9935 38.7845 30.002 38.6851C30.0105 38.5856 30.0464 38.4904 30.1057 38.4101C30.6257 37.7074 30.8252 36.0782 30.8581 35.5101C30.8622 35.4391 30.8803 35.3696 30.9113 35.3056C30.9422 35.2416 30.9855 35.1843 31.0386 35.1371C31.0917 35.0898 31.1536 35.0534 31.2208 35.0301C31.2879 35.0067 31.359 34.9968 31.43 35.0009C31.501 35.005 31.5705 35.0231 31.6345 35.0541C31.6985 35.085 31.7558 35.1283 31.8031 35.1814C31.8503 35.2345 31.8867 35.2964 31.9101 35.3636C31.9334 35.4307 31.9433 35.5018 31.9392 35.5728C31.9257 35.8144 31.777 37.9669 30.977 39.0528C30.9263 39.1213 30.8601 39.1769 30.7839 39.2149C30.7076 39.253 30.6234 39.2724 30.5381 39.2717Z" fill="white"/>
<path d="M45.8946 46.3427C45.7539 46.3428 45.6188 46.288 45.5178 46.19C45.4169 46.092 45.3582 45.9585 45.3541 45.8179C45.253 42.2979 43.9146 41.1903 43.9017 41.1795C43.79 41.0908 43.7175 40.9618 43.7 40.8203C43.6824 40.6788 43.721 40.536 43.8076 40.4227C43.8936 40.3103 44.0204 40.2364 44.1606 40.2169C44.3008 40.1975 44.4429 40.2342 44.5562 40.3189C44.6276 40.373 46.3168 41.6849 46.4352 45.7865C46.4392 45.9297 46.3863 46.0687 46.288 46.1728C46.1897 46.277 46.054 46.3379 45.9108 46.3422L45.8946 46.3427Z" fill="white"/>
<path d="M45.8973 49.5341C45.4747 49.5342 45.0615 49.4089 44.71 49.1742C44.3586 48.9395 44.0846 48.6058 43.9228 48.2154C43.761 47.825 43.7186 47.3953 43.801 46.9808C43.8834 46.5663 44.0869 46.1855 44.3857 45.8866C44.6845 45.5877 45.0652 45.3841 45.4797 45.3017C45.8942 45.2192 46.3239 45.2614 46.7143 45.4232C47.1048 45.5849 47.4386 45.8587 47.6734 46.2101C47.9082 46.5615 48.0335 46.9747 48.0335 47.3973C48.0329 47.9637 47.8077 48.5068 47.4072 48.9074C47.0068 49.308 46.4637 49.5334 45.8973 49.5341ZM45.8973 46.3416C45.6885 46.3415 45.4843 46.4034 45.3107 46.5193C45.137 46.6352 45.0016 46.8001 44.9216 46.993C44.8416 47.1858 44.8206 47.3981 44.8613 47.6029C44.902 47.8078 45.0025 47.9959 45.1501 48.1436C45.2977 48.2913 45.4858 48.3919 45.6906 48.4327C45.8954 48.4734 46.1077 48.4526 46.3006 48.3727C46.4936 48.2928 46.6585 48.1575 46.7745 47.9839C46.8905 47.8103 46.9524 47.6061 46.9524 47.3973C46.9522 47.1175 46.8409 46.8492 46.6431 46.6513C46.4453 46.4534 46.1771 46.3421 45.8973 46.3416Z" fill="white"/>
<path d="M23.693 46.3427C23.556 46.3431 23.424 46.2914 23.3237 46.1982C23.2233 46.105 23.1621 45.9772 23.1524 45.8406C22.8578 41.6919 25.1438 40.366 25.2411 40.3114C25.3659 40.2409 25.5137 40.2229 25.6518 40.2614C25.7899 40.2999 25.9071 40.3916 25.9775 40.5165C26.048 40.6414 26.066 40.7891 26.0275 40.9272C25.989 41.0653 25.8973 41.1825 25.7724 41.253C25.6902 41.3016 23.9886 42.3519 24.2302 45.7643C24.2404 45.9073 24.1932 46.0485 24.0993 46.1568C24.0053 46.265 23.8722 46.3315 23.7292 46.3416L23.693 46.3427Z" fill="white"/>
<path d="M22.5994 50.6708C22.5158 50.6712 22.4332 50.6522 22.3582 50.6152C22.2831 50.5783 22.2177 50.5244 22.167 50.4579C21.9032 50.1113 21.7088 49.7171 21.5946 49.2968C21.3437 48.4781 21.426 47.5935 21.8237 46.8352C22.2213 46.0769 22.9022 45.5061 23.7184 45.2471C24.1055 45.1382 24.5104 45.1076 24.9095 45.1569C25.3085 45.2063 25.6938 45.3347 26.0427 45.5346C26.6542 45.8879 27.1432 46.4194 27.4446 47.058C27.746 47.6967 27.8452 48.4121 27.7292 49.1087C27.7057 49.2501 27.6269 49.3764 27.5103 49.4598C27.3937 49.5431 27.2487 49.5768 27.1073 49.5533C26.9659 49.5298 26.8396 49.451 26.7562 49.3344C26.6728 49.2178 26.6392 49.0728 26.6627 48.9314C26.742 48.4541 26.6746 47.9639 26.4694 47.5258C26.2643 47.0876 25.9309 46.722 25.5135 46.4773C25.2884 46.3474 25.0397 46.2636 24.7819 46.2308C24.5241 46.198 24.2623 46.217 24.0119 46.2865C23.4702 46.4677 23.0219 46.8551 22.764 47.3647C22.5062 47.8743 22.4597 48.465 22.6346 49.0087C22.7128 49.2964 22.8461 49.5663 23.027 49.8033C23.0879 49.8834 23.1252 49.9789 23.1347 50.0791C23.1443 50.1792 23.1257 50.2801 23.081 50.3702C23.0363 50.4604 22.9674 50.5363 22.8819 50.5894C22.7965 50.6425 22.6979 50.6707 22.5973 50.6708H22.5994Z" fill="white"/>
<path d="M27.2033 49.5616C27.1822 49.5616 27.1606 49.5616 27.1389 49.5584L26.5298 49.4865C26.4592 49.4781 26.391 49.4559 26.3291 49.4212C26.2671 49.3864 26.2126 49.3399 26.1687 49.2841C26.1248 49.2283 26.0922 49.1644 26.073 49.096C26.0537 49.0277 26.0481 48.9562 26.0565 48.8856C26.0649 48.8151 26.0871 48.7469 26.1218 48.685C26.1565 48.623 26.2031 48.5685 26.2589 48.5246C26.3716 48.4358 26.5149 48.3955 26.6573 48.4124L27.2665 48.4848C27.4033 48.5011 27.5288 48.569 27.6172 48.6747C27.7056 48.7803 27.7504 48.9157 27.7423 49.0533C27.7342 49.1908 27.6739 49.3201 27.5737 49.4146C27.4736 49.5092 27.341 49.562 27.2033 49.5621V49.5616Z" fill="white"/>
<path d="M22.5995 50.6757C22.4726 50.6759 22.3497 50.6314 22.2523 50.55C22.1548 50.4686 22.0892 50.3556 22.0667 50.2307C22.0443 50.1058 22.0665 49.9769 22.1296 49.8668C22.1926 49.7566 22.2924 49.6721 22.4114 49.6281L23.06 49.3887C23.1266 49.3638 23.1974 49.3523 23.2684 49.3548C23.3394 49.3573 23.4092 49.3738 23.4738 49.4033C23.5384 49.4328 23.5966 49.4747 23.645 49.5267C23.6934 49.5787 23.7312 49.6397 23.756 49.7062C23.7808 49.7728 23.7923 49.8436 23.7898 49.9146C23.7873 49.9855 23.7708 50.0553 23.7413 50.12C23.7119 50.1846 23.6699 50.2428 23.618 50.2912C23.566 50.3396 23.505 50.3773 23.4384 50.4022L22.7898 50.6422C22.7289 50.6647 22.6644 50.676 22.5995 50.6757Z" fill="white"/>
</svg>
