<svg width="80" height="80" viewBox="0 0 80 80" fill="none" xmlns="http://www.w3.org/2000/svg">
<path d="M80 40C80 62.0914 62.0914 80 40 80C17.9086 80 0 62.0914 0 40C0 17.9086 17.9086 0 40 0C62.0914 0 80 17.9086 80 40Z" fill="#C4C4C4"/>
<circle cx="68" cy="67" r="8" fill="white"/>
<path d="M71.125 70.125H64.875C64.7092 70.125 64.5503 70.0592 64.4331 69.9419C64.3158 69.8247 64.25 69.6658 64.25 69.5V65.125C64.25 64.9592 64.3158 64.8003 64.4331 64.6831C64.5503 64.5658 64.7092 64.5 64.875 64.5H66.1248L66.7498 63.5625H69.2498L69.8748 64.5H71.125C71.2908 64.5 71.4497 64.5658 71.5669 64.6831C71.6842 64.8003 71.75 64.9592 71.75 65.125V69.5C71.75 69.6658 71.6842 69.8247 71.5669 69.9419C71.4497 70.0592 71.2908 70.125 71.125 70.125Z" stroke="#52D1C6" stroke-linecap="round" stroke-linejoin="round"/>
<path d="M68 68.5625C68.7767 68.5625 69.4062 67.9329 69.4062 67.1562C69.4062 66.3796 68.7767 65.75 68 65.75C67.2233 65.75 66.5938 66.3796 66.5938 67.1562C66.5938 67.9329 67.2233 68.5625 68 68.5625Z" stroke="#52D1C6" stroke-linecap="round" stroke-linejoin="round"/>
</svg>
