<svg width="71" height="71" viewBox="0 0 71 71" fill="none" xmlns="http://www.w3.org/2000/svg">
<rect width="71" height="71" rx="15" fill="#52D1C6"/>
<path d="M50.375 53H20.625C19.1777 53 18 51.8223 18 50.375V20.625C18 19.1777 19.1777 18 20.625 18H50.375C51.8223 18 53 19.1777 53 20.625V50.375C53 51.8223 51.8223 53 50.375 53ZM20.625 19.1667C19.8212 19.1667 19.1667 19.8212 19.1667 20.625V50.375C19.1667 51.1788 19.8212 51.8333 20.625 51.8333H50.375C51.1794 51.8333 51.8333 51.1788 51.8333 50.375V20.625C51.8333 19.8212 51.1788 19.1667 50.375 19.1667H20.625Z" fill="white"/>
<path d="M23.25 23.8333H20.9167C20.5947 23.8333 20.3334 23.572 20.3334 23.25V20.9166C20.3334 20.5946 20.5947 20.3333 20.9167 20.3333H23.25C23.572 20.3333 23.8334 20.5946 23.8334 20.9166V23.25C23.8334 23.572 23.572 23.8333 23.25 23.8333ZM21.5 22.6666H22.6667V21.5H21.5V22.6666Z" fill="white"/>
<path d="M27.9167 23.8333H25.5833C25.2613 23.8333 25 23.572 25 23.25V20.9166C25 20.5946 25.2613 20.3333 25.5833 20.3333H27.9167C28.2387 20.3333 28.5 20.5946 28.5 20.9166V23.25C28.5 23.572 28.2387 23.8333 27.9167 23.8333ZM26.1667 22.6666H27.3333V21.5H26.1667V22.6666Z" fill="white"/>
<path d="M32.5833 23.8333H30.25C29.928 23.8333 29.6666 23.572 29.6666 23.25V20.9166C29.6666 20.5946 29.928 20.3333 30.25 20.3333H32.5833C32.9053 20.3333 33.1666 20.5946 33.1666 20.9166V23.25C33.1666 23.572 32.9053 23.8333 32.5833 23.8333ZM30.8333 22.6666H32V21.5H30.8333V22.6666Z" fill="white"/>
<path d="M52.4167 26.1667H18.5833C18.2613 26.1667 18 25.9053 18 25.5833V20.625C18 19.1777 19.1777 18 20.625 18H50.375C51.8223 18 53 19.1777 53 20.625V25.5833C53 25.9053 52.7387 26.1667 52.4167 26.1667ZM19.1667 25H51.8333V20.625C51.8333 19.8212 51.1788 19.1667 50.375 19.1667H20.625C19.8212 19.1667 19.1667 19.8212 19.1667 20.625V25Z" fill="white"/>
<path d="M33.75 40.1666H20.9167C20.5947 40.1666 20.3334 39.9053 20.3334 39.5833V27.9166C20.3334 27.5946 20.5947 27.3333 20.9167 27.3333H33.75C34.072 27.3333 34.3334 27.5946 34.3334 27.9166V39.5833C34.3334 39.9053 34.072 40.1666 33.75 40.1666ZM21.5 39H33.1667V28.5H21.5V39Z" fill="white"/>
<path d="M27.3333 40.1667C27.1839 40.1667 27.0346 40.1095 26.9209 39.9958L23.8333 36.9082L21.329 39.4124C21.1009 39.6405 20.7323 39.6405 20.5042 39.4124C20.2761 39.1844 20.2761 38.8157 20.5042 38.5876L23.4209 35.6709C23.6489 35.4429 24.0176 35.4429 24.2457 35.6709L27.7457 39.1709C27.9738 39.399 27.9738 39.7677 27.7457 39.9958C27.6319 40.1095 27.4826 40.1667 27.3333 40.1667Z" fill="white"/>
<path d="M25 34.3334C23.7131 34.3334 22.6666 33.2869 22.6666 32C22.6666 30.7132 23.7131 29.6667 25 29.6667C26.2868 29.6667 27.3333 30.7132 27.3333 32C27.3333 33.2869 26.2868 34.3334 25 34.3334ZM25 30.8334C24.3565 30.8334 23.8333 31.3566 23.8333 32C23.8333 32.6434 24.3565 33.1667 25 33.1667C25.6434 33.1667 26.1666 32.6434 26.1666 32C26.1666 31.3566 25.6434 30.8334 25 30.8334Z" fill="white"/>
<path d="M33.75 39C33.6007 39 33.4513 38.9429 33.3376 38.8291L29.6847 35.1763L26.4729 38.6774C26.2553 38.9154 25.8867 38.9312 25.6487 38.713C25.4112 38.4954 25.3949 38.1262 25.6131 37.8888L29.2362 33.939C29.3435 33.8218 29.4946 33.7535 29.6532 33.75C29.8142 33.743 29.9659 33.8084 30.0785 33.9209L34.1618 38.0043C34.3899 38.2324 34.3899 38.601 34.1618 38.8291C34.0487 38.9429 33.8993 39 33.75 39Z" fill="white"/>
<path d="M50.0833 50.6666H37.25C36.928 50.6666 36.6666 50.4053 36.6666 50.0833V38.4166C36.6666 38.0946 36.928 37.8333 37.25 37.8333H50.0833C50.4053 37.8333 50.6666 38.0946 50.6666 38.4166V50.0833C50.6666 50.4053 50.4053 50.6666 50.0833 50.6666ZM37.8333 49.5H49.5V39H37.8333V49.5Z" fill="white"/>
<path d="M43.6666 50.6667C43.5173 50.6667 43.368 50.6095 43.2542 50.4958L40.1667 47.4082L37.6624 49.9124C37.4343 50.1405 37.0656 50.1405 36.8376 49.9124C36.6095 49.6844 36.6095 49.3157 36.8376 49.0876L39.7542 46.1709C39.9823 45.9429 40.351 45.9429 40.5791 46.1709L44.0791 49.6709C44.3072 49.899 44.3072 50.2677 44.0791 50.4958C43.9653 50.6095 43.816 50.6667 43.6666 50.6667Z" fill="white"/>
<path d="M41.3333 44.8334C40.0465 44.8334 39 43.7869 39 42.5C39 41.2132 40.0465 40.1667 41.3333 40.1667C42.6202 40.1667 43.6667 41.2132 43.6667 42.5C43.6667 43.7869 42.6202 44.8334 41.3333 44.8334ZM41.3333 41.3334C40.6899 41.3334 40.1667 41.8566 40.1667 42.5C40.1667 43.1434 40.6899 43.6667 41.3333 43.6667C41.9767 43.6667 42.5 43.1434 42.5 42.5C42.5 41.8566 41.9767 41.3334 41.3333 41.3334Z" fill="white"/>
<path d="M50.0834 49.5C49.934 49.5 49.7847 49.4429 49.671 49.3291L46.0181 45.6763L42.8063 49.1774C42.5887 49.4154 42.22 49.4312 41.982 49.213C41.7446 48.9954 41.7283 48.6262 41.9465 48.3888L45.5695 44.439C45.6769 44.3218 45.828 44.2535 45.9866 44.25C46.1424 44.2436 46.2993 44.3083 46.4119 44.4209L50.4952 48.5043C50.7233 48.7323 50.7233 49.101 50.4952 49.3291C50.382 49.4429 50.2327 49.5 50.0834 49.5Z" fill="white"/>
<path d="M46.5833 30.8334H37.25C36.928 30.8334 36.6666 30.572 36.6666 30.25C36.6666 29.928 36.928 29.6667 37.25 29.6667H46.5833C46.9053 29.6667 47.1666 29.928 47.1666 30.25C47.1666 30.572 46.9053 30.8334 46.5833 30.8334Z" fill="white"/>
<path d="M50.0833 30.8334H48.9166C48.5946 30.8334 48.3333 30.572 48.3333 30.25C48.3333 29.928 48.5946 29.6667 48.9166 29.6667H50.0833C50.4053 29.6667 50.6667 29.928 50.6667 30.25C50.6667 30.572 50.4053 30.8334 50.0833 30.8334Z" fill="white"/>
<path d="M46.5833 35.5H37.25C36.928 35.5 36.6666 35.2386 36.6666 34.9166C36.6666 34.5946 36.928 34.3333 37.25 34.3333H46.5833C46.9053 34.3333 47.1666 34.5946 47.1666 34.9166C47.1666 35.2386 46.9053 35.5 46.5833 35.5Z" fill="white"/>
<path d="M50.0833 35.5H48.9166C48.5946 35.5 48.3333 35.2386 48.3333 34.9166C48.3333 34.5946 48.5946 34.3333 48.9166 34.3333H50.0833C50.4053 34.3333 50.6667 34.5946 50.6667 34.9166C50.6667 35.2386 50.4053 35.5 50.0833 35.5Z" fill="white"/>
<path d="M50.0834 33.1667H40.75C40.428 33.1667 40.1667 32.9053 40.1667 32.5833C40.1667 32.2613 40.428 32 40.75 32H50.0834C50.4053 32 50.6667 32.2613 50.6667 32.5833C50.6667 32.9053 50.4053 33.1667 50.0834 33.1667Z" fill="white"/>
<path d="M38.4166 33.1667H37.25C36.928 33.1667 36.6666 32.9053 36.6666 32.5833C36.6666 32.2613 36.928 32 37.25 32H38.4166C38.7386 32 39 32.2613 39 32.5833C39 32.9053 38.7386 33.1667 38.4166 33.1667Z" fill="white"/>
<path d="M30.25 43.6667H20.9167C20.5947 43.6667 20.3334 43.4053 20.3334 43.0833C20.3334 42.7613 20.5947 42.5 20.9167 42.5H30.25C30.572 42.5 30.8334 42.7613 30.8334 43.0833C30.8334 43.4053 30.572 43.6667 30.25 43.6667Z" fill="white"/>
<path d="M33.7501 43.6667H32.5834C32.2614 43.6667 32.0001 43.4053 32.0001 43.0833C32.0001 42.7613 32.2614 42.5 32.5834 42.5H33.7501C34.0721 42.5 34.3334 42.7613 34.3334 43.0833C34.3334 43.4053 34.0721 43.6667 33.7501 43.6667Z" fill="white"/>
<path d="M30.25 48.3333H20.9167C20.5947 48.3333 20.3334 48.072 20.3334 47.75C20.3334 47.428 20.5947 47.1667 20.9167 47.1667H30.25C30.572 47.1667 30.8334 47.428 30.8334 47.75C30.8334 48.072 30.572 48.3333 30.25 48.3333Z" fill="white"/>
<path d="M33.7501 48.3333H32.5834C32.2614 48.3333 32.0001 48.072 32.0001 47.75C32.0001 47.428 32.2614 47.1667 32.5834 47.1667H33.7501C34.0721 47.1667 34.3334 47.428 34.3334 47.75C34.3334 48.072 34.0721 48.3333 33.7501 48.3333Z" fill="white"/>
<path d="M33.75 46H24.4167C24.0947 46 23.8334 45.7386 23.8334 45.4166C23.8334 45.0946 24.0947 44.8333 24.4167 44.8333H33.75C34.072 44.8333 34.3334 45.0946 34.3334 45.4166C34.3334 45.7386 34.072 46 33.75 46Z" fill="white"/>
<path d="M22.0834 46H20.9167C20.5947 46 20.3334 45.7386 20.3334 45.4166C20.3334 45.0946 20.5947 44.8333 20.9167 44.8333H22.0834C22.4054 44.8333 22.6667 45.0946 22.6667 45.4166C22.6667 45.7386 22.4054 46 22.0834 46Z" fill="white"/>
</svg>
