<svg width="14" height="14" viewBox="0 0 14 14" fill="none" xmlns="http://www.w3.org/2000/svg">
<path d="M10.4525 8.35337C10.3014 8.49979 10.232 8.71154 10.2664 8.91921L10.785 11.7892C10.8288 12.0325 10.7261 12.2786 10.5225 12.4192C10.323 12.565 10.0576 12.5825 9.84001 12.4659L7.25643 11.1184C7.1666 11.0705 7.06685 11.0449 6.96476 11.042H6.80668C6.75185 11.0501 6.69818 11.0676 6.64918 11.0945L4.06501 12.4484C3.93726 12.5125 3.7926 12.5353 3.65085 12.5125C3.30551 12.4472 3.0751 12.1182 3.13168 11.7711L3.65085 8.90112C3.68526 8.69171 3.61585 8.47879 3.46476 8.33004L1.35835 6.28837C1.18218 6.11746 1.12093 5.86079 1.20143 5.62921C1.2796 5.39821 1.4791 5.22962 1.72001 5.19171L4.61918 4.77112C4.83968 4.74837 5.03335 4.61421 5.13251 4.41587L6.41001 1.79671C6.44035 1.73837 6.47943 1.68471 6.52668 1.63921L6.57918 1.59837C6.6066 1.56804 6.6381 1.54296 6.6731 1.52254L6.73668 1.49921L6.83585 1.45837H7.08143C7.30076 1.48112 7.49385 1.61237 7.59476 1.80837L8.88918 4.41587C8.98251 4.60662 9.16393 4.73904 9.37335 4.77112L12.2725 5.19171C12.5175 5.22671 12.7223 5.39587 12.8033 5.62921C12.8798 5.86312 12.8138 6.11979 12.6342 6.28837L10.4525 8.35337Z" fill="#52D1C6"/>
</svg>
