<svg width="36" height="36" viewBox="0 0 36 36" fill="none" xmlns="http://www.w3.org/2000/svg">
<circle cx="18" cy="18" r="18" fill="#E8F3F1"/>
<path d="M10.5772 15.8369H25.4305" stroke="#52D1C6" stroke-width="1.5" stroke-linecap="round" stroke-linejoin="round"/>
<path d="M21.7017 19.0914H21.7094" stroke="#52D1C6" stroke-width="1.5" stroke-linecap="round" stroke-linejoin="round"/>
<path d="M18.0038 19.0914H18.0116" stroke="#52D1C6" stroke-width="1.5" stroke-linecap="round" stroke-linejoin="round"/>
<path d="M14.2982 19.0914H14.306" stroke="#52D1C6" stroke-width="1.5" stroke-linecap="round" stroke-linejoin="round"/>
<path d="M21.7017 22.3302H21.7094" stroke="#52D1C6" stroke-width="1.5" stroke-linecap="round" stroke-linejoin="round"/>
<path d="M18.0038 22.3302H18.0116" stroke="#52D1C6" stroke-width="1.5" stroke-linecap="round" stroke-linejoin="round"/>
<path d="M14.2982 22.3302H14.306" stroke="#52D1C6" stroke-width="1.5" stroke-linecap="round" stroke-linejoin="round"/>
<path d="M21.3698 9.66669V12.409" stroke="#52D1C6" stroke-width="1.5" stroke-linecap="round" stroke-linejoin="round"/>
<path d="M14.6379 9.66669V12.409" stroke="#52D1C6" stroke-width="1.5" stroke-linecap="round" stroke-linejoin="round"/>
<path fill-rule="evenodd" clip-rule="evenodd" d="M21.5319 10.9827H14.4758C12.0286 10.9827 10.5 12.3459 10.5 14.8519V22.3932C10.5 24.9385 12.0286 26.3333 14.4758 26.3333H21.5242C23.9791 26.3333 25.5 24.9622 25.5 22.4563V14.8519C25.5077 12.3459 23.9868 10.9827 21.5319 10.9827Z" stroke="#52D1C6" stroke-width="1.5" stroke-linecap="round" stroke-linejoin="round"/>
</svg>
